<svg xmlns="http://www.w3.org/2000/svg" width="379.11" height="64.303" viewBox="0 0 379.11 64.303">
  <g id="logo_brayds" transform="translate(-701 -182.697)">
    <g id="Grupo_2" data-name="Grupo 2" transform="translate(-4 -1.506)">
      <g id="Trazado_7" data-name="Trazado 7" transform="translate(815.943 169.019)" fill="#fff">
        <path d="M 30.58875465393066 48.95006942749023 C 29.19174385070801 48.95009231567383 27.78328323364258 48.92341995239258 26.42120170593262 48.89763259887695 C 25.06945991516113 48.87203216552734 23.79268455505371 48.84785461425781 22.53277778625488 48.84785461425781 C 21.19656562805176 48.84785461425781 19.90867233276367 48.87546920776367 18.66317749023438 48.90218353271484 C 17.51491928100586 48.92680740356445 16.43035507202148 48.95006942749023 15.3935661315918 48.95006942749023 C 11.16087245941162 48.95006942749023 8.925413131713867 48.49251556396484 7.677637100219727 47.37079620361328 C 5.925907611846924 45.79605484008789 5.000001907348633 41.85280990600586 5.000001907348633 35.96735000610352 C 5.000001907348633 35.03350448608398 4.998766422271729 34.14777374267578 4.997601985931396 33.30770111083984 C 4.992754936218262 29.83340835571289 4.988931179046631 27.08919715881348 5.082178115844727 25.10080909729004 C 5.125246524810791 24.18233871459961 5.18552827835083 23.53609466552734 5.244484424591064 23.08622932434082 C 5.380062580108643 23.083251953125 5.532835006713867 23.08151435852051 5.704895973205566 23.08151435852051 C 6.330507755279541 23.08151435852051 7.065178394317627 23.10218620300293 7.915860652923584 23.12613868713379 C 9.068742752075195 23.15858459472656 10.37544918060303 23.19536209106445 11.89380168914795 23.19536209106445 C 13.1199779510498 23.19536209106445 14.49261379241943 23.17082023620605 15.94583702087402 23.14484405517578 C 17.60663795471191 23.11516189575195 19.4890251159668 23.08151435852051 21.41001319885254 23.08151435852051 C 25.52079010009766 23.08151435852051 28.82210731506348 23.2354679107666 31.79944801330566 23.56600952148438 C 35.46895599365234 23.97339630126953 38.58841323852539 24.66250228881836 41.07118988037109 25.61417388916016 C 43.65963745117188 26.60636138916016 45.60879135131836 27.90202140808105 46.86452102661133 29.46518516540527 C 48.22077941894531 31.15346717834473 48.88007354736328 33.28034973144531 48.88007354736328 35.96735000610352 C 48.88007354736328 39.01251602172852 48.38423538208008 41.48685455322266 47.40633010864258 43.3216438293457 C 46.63530731201172 44.76828002929688 45.52650833129883 45.87872695922852 44.0165901184082 46.7164306640625 C 42.51183700561523 47.55126953125 40.61442565917969 48.13299560546875 38.2159538269043 48.49488067626953 C 35.51230621337891 48.90279769897461 32.56813049316406 48.95001983642578 30.58875465393066 48.95006942749023 Z" stroke="none"/>
        <path d="M 21.41012954711914 28.08151245117188 L 16.03585815429688 28.14405822753906 L 11.89380264282227 28.19536972045898 C 11.23178482055664 28.19536972045898 10.60403823852539 28.18857192993164 10.00881576538086 28.17816162109375 C 9.992649078369141 29.749755859375 9.995143890380859 31.53771591186523 9.997600555419922 33.30060577392578 L 10 35.96735000610352 C 10 41.69294357299805 10.94717025756836 43.47597503662109 10.87709045410156 43.53894805908203 C 11.14741897583008 43.65548706054688 12.15362167358398 43.95005798339844 15.3935661315918 43.95005798339844 L 18.55598449707031 43.9033317565918 L 22.53276634216309 43.84785842895508 L 26.5168571472168 43.89852905273438 L 30.58883857727051 43.95005798339844 C 43.88005828857422 43.95005798339844 43.88005828857422 41.11465835571289 43.88005828857422 35.96735000610352 C 43.88005828857422 33.67102432250977 43.55020141601562 31.91911315917969 39.28156661987305 30.28289413452148 C 34.13363647460938 28.30962371826172 26.61654663085938 28.08145904541016 21.41012954711914 28.08151245117188 M 5.704883575439453 18.08151626586914 C 7.289325714111328 18.08151626586914 9.311553955078125 18.19536972045898 11.89380264282227 18.19536972045898 C 14.47528457641602 18.19536972045898 17.78546142578125 18.0815544128418 21.4100284576416 18.08151626586914 C 35.31864929199219 18.08138275146484 53.88005828857422 19.75663757324219 53.88005828857422 35.96735000610352 C 53.88005828857422 52.31401062011719 41.80966949462891 53.95006561279297 30.58884048461914 53.95006561279297 C 27.7823486328125 53.95006561279297 25.03117370605469 53.84785842895508 22.53276634216309 53.84785842895508 C 20.03512191772461 53.84785842895508 17.63497543334961 53.95006561279297 15.39356231689453 53.95006561279297 C 6.428600311279297 53.95006561279297 0 52.31526184082031 0 35.96735000610352 C 0 19.75788497924805 -0.3728713989257812 18.08151626586914 5.704883575439453 18.08151626586914 Z" stroke="none" fill="#707070"/>
      </g>
      <line id="Línea_7" data-name="Línea 7" y2="26.429" transform="translate(836.5 221.372)" fill="none" stroke="#707070" stroke-width="10"/>
      <line id="Línea_8" data-name="Línea 8" x1="12" y1="26.154" transform="translate(851.5 219.533)" fill="none" stroke="#707070" stroke-width="10"/>
      <rect id="Rectángulo_12" data-name="Rectángulo 12" width="19" height="62" transform="translate(813 186.506)" fill="#fff"/>
    </g>
    <g id="Grupo_9" data-name="Grupo 9">
      <g id="Grupo_4" data-name="Grupo 4" transform="translate(-7.412 -5.5)">
        <g id="Grupo_3" data-name="Grupo 3" transform="translate(894.989 191.919)">
          <line id="Línea_10" data-name="Línea 10" x2="0.789" y2="60.31" transform="matrix(0.985, 0.174, -0.174, 0.985, 9.696, 0.099)" fill="none" stroke="#707070" stroke-width="10"/>
          <line id="Línea_11" data-name="Línea 11" y1="60.31" x2="0.789" transform="matrix(-0.985, 0.174, -0.174, -0.985, 24.473, 59.493)" fill="none" stroke="#707070" stroke-width="10"/>
        </g>
        <path id="Trazado_8" data-name="Trazado 8" d="M.13,0H14.175" transform="translate(899.707 191.5)" fill="none" stroke="#707070" stroke-width="1"/>
        <line id="Línea_12" data-name="Línea 12" x2="5" y2="1.142" transform="translate(904.5 191.5)" fill="none" stroke="#707070" stroke-width="1"/>
      </g>
      <g id="Grupo_6" data-name="Grupo 6" transform="translate(-10.17 -6.915)">
        <g id="Grupo_5" data-name="Grupo 5" transform="translate(961.659 223.929) rotate(180)">
          <g id="Grupo_3-2" data-name="Grupo 3" transform="translate(0 0)">
            <line id="Línea_10-2" data-name="Línea 10" x1="4.127" y2="32.43" transform="matrix(0.985, 0.174, -0.174, 0.985, 5.631, 0.18)" fill="none" stroke="#707070" stroke-width="10"/>
            <line id="Línea_11-2" data-name="Línea 11" x1="4.127" y1="32.43" transform="matrix(-0.985, 0.174, -0.174, -0.985, 19.439, 32.117)" fill="none" stroke="#707070" stroke-width="10"/>
          </g>
          <path id="Trazado_8-2" data-name="Trazado 8" d="M0,0H9.179" transform="translate(5.154 0.459)" fill="none" stroke="#707070" stroke-width="1"/>
          <line id="Línea_12-2" data-name="Línea 12" x2="5" y2="0.516" transform="translate(7.345 0.459)" fill="none" stroke="#707070" stroke-width="1"/>
        </g>
        <line id="Línea_13" data-name="Línea 13" y2="35.468" transform="translate(952 215.947)" fill="none" stroke="#707070" stroke-width="10"/>
      </g>
      <g id="Grupo_7" data-name="Grupo 7" transform="translate(-7.5)">
        <g id="Sustracción_3" data-name="Sustracción 3" transform="translate(1018.502 183.727) rotate(90)" fill="#fff" stroke-linecap="round" stroke-linejoin="round">
          <path d="M 56.00020217895508 34.00151824951172 L 5.000000953674316 34.00068283081055 L 5.000000953674316 30.50010108947754 C 5.000000953674316 27.05551338195801 5.673538684844971 23.71657562255859 7.001913547515869 20.57601356506348 C 8.286013603210449 17.54011344909668 10.12538814544678 14.81250095367432 12.46893882751465 12.46892642974854 C 14.81250095367432 10.12538814544678 17.54011344909668 8.286013603210449 20.57601356506348 7.001913547515869 C 23.71655082702637 5.673538684844971 27.05548858642578 5.000000953674316 30.50010108947754 5.000000953674316 C 33.94491195678711 5.000000953674316 37.28398895263672 5.673538684844971 40.42456436157227 7.001913547515869 C 43.46053695678711 8.286026000976562 46.18811416625977 10.12538814544678 48.53156280517578 12.46888828277588 C 50.87502670288086 14.81241321563721 52.71434020996094 17.54001426696777 53.9984016418457 20.57595062255859 C 55.32670211791992 23.71648788452148 56.00020217895508 27.05545043945312 56.00020217895508 30.50010108947754 L 56.00020217895508 34.00151824951172 Z" stroke="none"/>
          <path d="M 50.94697570800781 29.00143623352051 C 50.786865234375 26.76041030883789 50.26624298095703 24.58746337890625 49.39333724975586 22.52365493774414 C 48.36137390136719 20.0837459564209 46.88188171386719 17.89032745361328 44.99597549438477 16.0043830871582 C 43.1101188659668 14.11847400665283 40.9167366027832 12.63894653320312 38.47682952880859 11.60692882537842 C 35.95586395263672 10.54065608978271 33.27210235595703 10.00000095367432 30.50010108947754 10.00000095367432 C 27.72831916809082 10.00000095367432 25.04470062255859 10.54063701629639 22.52382850646973 11.60689163208008 C 20.08388328552246 12.63894653320312 17.89044570922852 14.11849212646484 16.00450134277344 16.00443840026855 C 14.11850070953369 17.89045524597168 12.63893699645996 20.08389282226562 11.60690116882324 22.52383804321289 C 10.7340612411499 24.58741760253906 10.21345329284668 26.75995826721191 10.053297996521 29.00076675415039 L 50.94697570800781 29.00143623352051 M 61.00020980834961 39.00160217285156 L 60.99921035766602 39.00160217285156 L 1.018038619804429e-05 39.00060272216797 L 1.018038619804429e-05 30.5001106262207 C 1.018038619804429e-05 26.38270950317383 0.8064283728599548 22.38843727111816 2.39690113067627 18.62823677062988 C 3.933101177215576 14.99632835388184 6.132300853729248 11.73452854156494 8.93341064453125 8.933401107788086 C 11.73451900482178 6.132291793823242 14.996337890625 3.933091878890991 18.62822914123535 2.396892070770264 C 22.388427734375 0.8064374327659607 26.38271903991699 1.086425754692755e-06 30.50010108947754 1.086425754692755e-06 C 34.61770248413086 1.086425754692755e-06 38.61210250854492 0.8064374327659607 42.37235641479492 2.396892070770264 C 46.0042839050293 3.933091878890991 49.26608276367188 6.13227367401123 52.067138671875 8.933401107788086 C 54.8681755065918 11.73451042175293 57.06730270385742 14.99631023406982 58.60342788696289 18.62823677062988 C 60.19380950927734 22.38840103149414 61.00020980834961 26.3826732635498 61.00020980834961 30.5001106262207 L 61.00020980834961 39.00060272216797 L 61.00020980834961 39.00160217285156 Z" stroke="none" fill="#707070"/>
        </g>
        <rect id="Rectángulo_13" data-name="Rectángulo 13" width="11" height="26" transform="translate(979 194)" fill="#fff"/>
        <line id="Línea_14" data-name="Línea 14" x2="10" y2="1" transform="translate(979.5 193.5)" fill="none" stroke="#fff" stroke-linecap="round" stroke-width="1"/>
      </g>
      <path id="Trazado_9" data-name="Trazado 9" d="M1,70s44.358,13.4,44.108-4.1c-.053-3.733-3.247-6.219-8.36-9.424-2.551-1.6-5.921-3.549-9.558-6.036-6.613-4.521-13.732-8.752-19.056-15.243C-1.01,24.043,41.62,23.057,41.62,23.057" transform="translate(1030 166.5)" fill="none" stroke="#707070" stroke-linecap="round" stroke-width="10"/>
      <g id="Grupo_8" data-name="Grupo 8">
        <g id="Grupo_1" data-name="Grupo 1">
          <g id="Trazado_5" data-name="Trazado 5" transform="translate(701.943 166.009)" fill="#fff">
            <path d="M 57.49090957641602 47.7392692565918 C 54.97227478027344 47.73928451538086 52.41983795166016 47.71588516235352 49.95143890380859 47.6932487487793 C 47.46072769165039 47.67041397094727 45.10814666748047 47.64884948730469 42.76249313354492 47.64884948730469 C 40.30987548828125 47.64884948730469 37.92234802246094 47.67297744750977 35.6134033203125 47.69632339477539 C 33.42761993408203 47.7183952331543 31.36305618286133 47.7392692565918 29.35465621948242 47.7392692565918 C 26.01118278503418 47.7392692565918 21.69971084594727 47.68706893920898 18.00594711303711 47.27994155883789 C 14.70823764801025 46.91646957397461 12.17531108856201 46.31373977661133 10.26240158081055 45.43728637695312 C 8.486802101135254 44.62374114990234 7.278383731842041 43.59657669067383 6.459456443786621 42.20474243164062 C 5.49103832244873 40.55883026123047 5.000001907348633 38.24385070800781 5.000001907348633 35.32410430908203 C 5.000001907348633 32.57312393188477 5.461492538452148 30.38301277160645 6.371674537658691 28.81457710266113 C 7.138801574707031 27.49266815185547 8.265656471252441 26.51123237609863 9.918002128601074 25.72592163085938 C 14.14536571502686 23.71679496765137 20.98831176757812 23.43984985351562 27.75336456298828 23.43984985351562 C 30.10038375854492 23.43984985351562 32.53867340087891 23.47683143615723 35.12014770507812 23.51597785949707 C 37.88460159301758 23.55790519714355 40.7431640625 23.60124969482422 43.68932723999023 23.60124969482422 C 46.50689315795898 23.60124969482422 49.46165466308594 23.56066703796387 52.31914901733398 23.52141380310059 C 55.23905563354492 23.4813232421875 58.25838470458984 23.43984985351562 61.19892883300781 23.43984985351562 C 69.60504150390625 23.43984985351562 79.09358215332031 23.73839569091797 85.73309326171875 25.95272254943848 C 88.55899810791016 26.89519500732422 90.65113067626953 28.1236686706543 91.95138549804688 29.60406875610352 C 93.25408935546875 31.08723068237305 93.86083984375 32.90481185913086 93.86083984375 35.32410430908203 C 93.86083984375 37.83635711669922 93.16944122314453 39.73295974731445 91.68492889404297 41.29277801513672 C 90.16714477539062 42.88757705688477 87.74127197265625 44.20237731933594 84.4747314453125 45.20064926147461 C 77.1552734375 47.43748474121094 66.72679901123047 47.73917770385742 57.49090957641602 47.7392692565918 Z" stroke="none"/>
            <path d="M 27.75339508056641 28.4398307800293 C 9.999984741210938 28.4398307800293 9.999984741210938 30.88508224487305 9.999984741210938 35.32410430908203 C 9.999984741210938 40.26115036010742 9.999984741210938 42.73926544189453 29.35466766357422 42.73926544189453 L 35.56289672851562 42.69655609130859 L 42.76248931884766 42.64885711669922 L 49.99928283691406 42.69346618652344 L 57.49094390869141 42.73926544189453 C 78.89282989501953 42.73926544189453 88.86083221435547 40.38303375244141 88.86083221435547 35.32410430908203 C 88.86083221435547 33.75171661376953 88.86083221435547 32.26655960083008 84.15116882324219 30.69583129882812 C 78.15530395507812 28.69612884521484 68.73555755615234 28.43976211547852 61.19896697998047 28.4398307800293 C 58.27012634277344 28.43985366821289 55.31317138671875 28.48078536987305 52.38901138305664 28.52094650268555 C 49.43710327148438 28.56146621704102 46.51760101318359 28.60124206542969 43.68932723999023 28.60124206542969 C 40.72914886474609 28.60124206542969 37.8389892578125 28.55776214599609 35.04435348510742 28.51537704467773 C 32.52676391601562 28.47719573974609 30.08973693847656 28.4398307800293 27.75339508056641 28.4398307800293 M 27.75339508056641 18.43983840942383 C 32.68630218505859 18.43983840942383 38.05891799926758 18.60124206542969 43.68932723999023 18.60124206542969 C 49.31825637817383 18.60124206542969 55.31442260742188 18.43988418579102 61.19889068603516 18.43983840942383 C 80.62583160400391 18.43968200683594 98.86083221435547 20.19766998291016 98.86083221435547 35.32410430908203 C 98.86083221435547 51.19272613525391 78.18460083007812 52.73927307128906 57.49094390869141 52.73927307128906 C 52.48380661010742 52.73927307128906 47.47962188720703 52.64885711669922 42.76248931884766 52.64885711669922 C 38.04683685302734 52.64885711669922 33.54555511474609 52.73927307128906 29.35466766357422 52.73927307128906 C 12.02769470214844 52.73927307128906 -1.52587890625e-05 51.19393157958984 -1.52587890625e-05 35.32410430908203 C -1.52587890625e-05 20.19887161254883 11.4735107421875 18.43983840942383 27.75339508056641 18.43983840942383 Z" stroke="none" fill="#707070"/>
          </g>
          <g id="Trazado_6" data-name="Trazado 6" transform="translate(709.943 193.537)" fill="#fff">
            <path d="M 57.49090957641602 47.7392692565918 C 54.97227478027344 47.73928451538086 52.41983795166016 47.71588516235352 49.95143890380859 47.6932487487793 C 47.46072769165039 47.67041397094727 45.10814666748047 47.64884948730469 42.76249313354492 47.64884948730469 C 40.30987548828125 47.64884948730469 37.92234802246094 47.67297744750977 35.6134033203125 47.69632339477539 C 33.42761993408203 47.7183952331543 31.36305618286133 47.7392692565918 29.35465621948242 47.7392692565918 C 26.01118278503418 47.7392692565918 21.69971084594727 47.68706893920898 18.00594711303711 47.27994155883789 C 14.70823764801025 46.91646957397461 12.17531108856201 46.31373977661133 10.26240158081055 45.43728637695312 C 8.486802101135254 44.62374114990234 7.278383731842041 43.59657669067383 6.459456443786621 42.20474243164062 C 5.49103832244873 40.55883026123047 5.000001907348633 38.24385070800781 5.000001907348633 35.32410430908203 C 5.000001907348633 32.57312393188477 5.461492538452148 30.38301277160645 6.371674537658691 28.81457710266113 C 7.138801574707031 27.49266815185547 8.265656471252441 26.51123237609863 9.918002128601074 25.72592163085938 C 14.14536571502686 23.71679496765137 20.98831176757812 23.43984985351562 27.75336456298828 23.43984985351562 C 30.10038375854492 23.43984985351562 32.53867340087891 23.47683143615723 35.12014770507812 23.51597785949707 C 37.88460159301758 23.55790519714355 40.7431640625 23.60124969482422 43.68932723999023 23.60124969482422 C 46.50689315795898 23.60124969482422 49.46165466308594 23.56066703796387 52.31914901733398 23.52141380310059 C 55.23905563354492 23.4813232421875 58.25838470458984 23.43984985351562 61.19892883300781 23.43984985351562 C 69.60504150390625 23.43984985351562 79.09358215332031 23.73839569091797 85.73309326171875 25.95272254943848 C 88.55899810791016 26.89519500732422 90.65113067626953 28.1236686706543 91.95138549804688 29.60406875610352 C 93.25408935546875 31.08723068237305 93.86083984375 32.90481185913086 93.86083984375 35.32410430908203 C 93.86083984375 37.83635711669922 93.16944122314453 39.73295974731445 91.68492889404297 41.29277801513672 C 90.16714477539062 42.88757705688477 87.74127197265625 44.20237731933594 84.4747314453125 45.20064926147461 C 77.1552734375 47.43748474121094 66.72679901123047 47.73917770385742 57.49090957641602 47.7392692565918 Z" stroke="none"/>
            <path d="M 27.75339508056641 28.4398307800293 C 9.999984741210938 28.4398307800293 9.999984741210938 30.88508224487305 9.999984741210938 35.32410430908203 C 9.999984741210938 40.26115036010742 9.999984741210938 42.73926544189453 29.35466766357422 42.73926544189453 L 35.56289672851562 42.69655609130859 L 42.76248931884766 42.64885711669922 L 49.99928283691406 42.69346618652344 L 57.49094390869141 42.73926544189453 C 78.89282989501953 42.73926544189453 88.86083221435547 40.38303375244141 88.86083221435547 35.32410430908203 C 88.86083221435547 33.75171661376953 88.86083221435547 32.26655960083008 84.15116882324219 30.69583129882812 C 78.15530395507812 28.69612884521484 68.73555755615234 28.43976211547852 61.19896697998047 28.4398307800293 C 58.27012634277344 28.43985366821289 55.31317138671875 28.48078536987305 52.38901138305664 28.52094650268555 C 49.43710327148438 28.56146621704102 46.51760101318359 28.60124206542969 43.68932723999023 28.60124206542969 C 40.72914886474609 28.60124206542969 37.8389892578125 28.55776214599609 35.04435348510742 28.51537704467773 C 32.52676391601562 28.47719573974609 30.08973693847656 28.4398307800293 27.75339508056641 28.4398307800293 M 27.75339508056641 18.43983840942383 C 32.68630218505859 18.43983840942383 38.05891799926758 18.60124206542969 43.68932723999023 18.60124206542969 C 49.31825637817383 18.60124206542969 55.31442260742188 18.43988418579102 61.19889068603516 18.43983840942383 C 80.62583160400391 18.43968200683594 98.86083221435547 20.19766998291016 98.86083221435547 35.32410430908203 C 98.86083221435547 51.19272613525391 78.18460083007812 52.73927307128906 57.49094390869141 52.73927307128906 C 52.48380661010742 52.73927307128906 47.47962188720703 52.64885711669922 42.76248931884766 52.64885711669922 C 38.04683685302734 52.64885711669922 33.54555511474609 52.73927307128906 29.35466766357422 52.73927307128906 C 12.02769470214844 52.73927307128906 -1.52587890625e-05 51.19393157958984 -1.52587890625e-05 35.32410430908203 C -1.52587890625e-05 20.19887161254883 11.4735107421875 18.43983840942383 27.75339508056641 18.43983840942383 Z" stroke="none" fill="#707070"/>
          </g>
          <rect id="Rectángulo_11" data-name="Rectángulo 11" width="71" height="63" transform="translate(701 184)" fill="#fff"/>
        </g>
      </g>
    </g>
  </g>
</svg>
