<svg xmlns="http://www.w3.org/2000/svg" width="315.815" height="62.879" viewBox="0 0 315.815 62.879">
  <defs>
    <style>
      .cls-1, .cls-2, .cls-3, .cls-4, .cls-5 {
        fill: none;
      }

      .cls-2, .cls-3, .cls-5 {
        stroke: #707070;
      }

      .cls-2, .cls-5 {
        stroke-width: 10px;
      }

      .cls-4, .cls-5 {
        stroke-linecap: round;
      }

      .cls-4 {
        stroke-linejoin: round;
      }

      .cls-6, .cls-7 {
        stroke: none;
      }

      .cls-7 {
        fill: #707070;
      }
    </style>
  </defs>
  <g id="logo_brayds_v3" transform="translate(-1635.295 -1720.443)">
    <g id="Grupo_7" data-name="Grupo 7" transform="translate(1 -32)">
      <g id="Sustracción_5" data-name="Sustracción 5" class="cls-1" transform="translate(1678 1753)">
        <path class="cls-6" d="M32.8,36.09c-1.411,0-2.8-.024-4.149-.047C27.371,36.021,26.163,36,25,36c-1.238,0-2.448.024-3.618.047-.826.016-1.605.032-2.382.039V.93l.874-.024C22.009.848,24.43.782,26.92.782a86.88,86.88,0,0,1,10.417.54,37.287,37.287,0,0,1,9.7,2.334,16.7,16.7,0,0,1,7.164,5.2A14.8,14.8,0,0,1,57,18a20.047,20.047,0,0,1-2.167,9.788A13.626,13.626,0,0,1,49.2,33.233C44.48,35.751,38.262,36.09,32.8,36.09Z"/>
        <path class="cls-7" d="M 32.80217361450195 26.09021759033203 C 35.13849639892578 26.09020233154297 41.34455871582031 26.09014129638672 44.49995803833008 24.40835571289062 C 45.46994400024414 23.89135551452637 45.85977554321289 23.34732437133789 46.0910530090332 22.93109512329102 C 46.43040466308594 22.32037162780762 46.99971389770508 20.86761665344238 46.99971389770508 18.00000190734863 C 46.99971389770508 16.61246299743652 46.73966598510742 15.56474018096924 46.22683715820312 14.885986328125 C 45.69401931762695 14.18080234527588 44.63423538208008 13.47769451141357 43.24277496337891 12.9062328338623 C 41.39554214477539 12.14761734008789 39.06966781616211 11.60555553436279 36.13223648071289 11.24907875061035 C 34.01890563964844 10.9926061630249 31.67045021057129 10.84806823730469 28.99989700317383 10.80029392242432 L 28.99989700317383 26.04648399353027 L 32.80203628540039 26.09021759033203 L 32.80217361450195 26.09021759033203 M 32.80224990844727 36.09021759033203 C 31.3913745880127 36.09024810791016 29.99921989440918 36.06623458862305 28.65291404724121 36.04298782348633 C 27.3712215423584 36.0208625793457 26.16348266601562 36.00001907348633 25.00020599365234 36.00001907348633 C 23.76257514953613 36.00001907348633 22.55238914489746 36.02395629882812 21.38205146789551 36.04711151123047 C 20.55645179748535 36.06344985961914 19.77663612365723 36.07888031005859 18.99989700317383 36.08610916137695 L 18.99989700317383 0.929771363735199 C 19.28685188293457 0.9221405982971191 19.5782356262207 0.9142329096794128 19.87374305725098 0.9062021374702454 C 22.00946617126465 0.8481559753417969 24.43012809753418 0.7823713421821594 26.91972923278809 0.7823713421821594 C 30.93780517578125 0.7823713421821594 34.34529876708984 0.9588482975959778 37.33697509765625 1.321909785270691 C 41.17805099487305 1.788048267364502 44.35249710083008 2.551525115966797 47.04171371459961 3.655940532684326 C 50.15268325805664 4.933586597442627 52.56291198730469 6.683663845062256 54.20546722412109 8.857602119445801 C 56.05958938598633 11.31158638000488 56.99971389770508 14.38754081726074 56.99971389770508 18.00000190734863 C 56.99971389770508 21.90661811828613 56.27048110961914 25.19983291625977 54.83228302001953 27.78815650939941 C 53.55157470703125 30.09306335449219 51.65777587890625 31.92501831054688 49.20351409912109 33.23312377929688 C 44.48005294799805 35.75067901611328 38.26191329956055 36.09017181396484 32.80224990844727 36.09021759033203 Z"/>
      </g>
      <path id="Trazado_10" data-name="Trazado 10" class="cls-2" d="M0-.366v27" transform="translate(1702.5 1787.866)"/>
      <line id="Línea_8" data-name="Línea 8" class="cls-2" x1="12" y1="26" transform="translate(1716.5 1786.5)"/>
    </g>
    <g id="Grupo_10" data-name="Grupo 10" transform="translate(0 -32)">
      <g id="Grupo_9" data-name="Grupo 9">
        <g id="Grupo_8" data-name="Grupo 8">
          <g id="Grupo_3" data-name="Grupo 3" transform="translate(1756.577 1754.419)">
            <line id="Línea_10" data-name="Línea 10" class="cls-2" x1="10" y2="60" transform="translate(-0.077 0.081)"/>
            <line id="Línea_11" data-name="Línea 11" class="cls-2" x2="10" y2="60" transform="translate(13.923 0.081)"/>
          </g>
        </g>
      </g>
      <path id="Trazado_8" data-name="Trazado 8" class="cls-3" d="M.13,0H14.175" transform="translate(1761.295 1754)"/>
      <line id="Línea_12" data-name="Línea 12" class="cls-3" x2="5" y2="1.142" transform="translate(1766.088 1754)"/>
    </g>
    <g id="Grupo_11" data-name="Grupo 11" transform="translate(0 -30)">
      <g id="Grupo_5" data-name="Grupo 5" transform="translate(1820.489 1785.014) rotate(180)">
        <g id="Grupo_3-2" data-name="Grupo 3" transform="translate(0 0)">
          <line id="Línea_10-2" data-name="Línea 10" class="cls-2" x1="4.127" y2="32.43" transform="matrix(0.985, 0.174, -0.174, 0.985, 5.631, 0.18)"/>
          <line id="Línea_11-2" data-name="Línea 11" class="cls-2" x1="4.127" y1="32.43" transform="matrix(-0.985, 0.174, -0.174, -0.985, 19.439, 32.117)"/>
        </g>
        <path id="Trazado_8-2" data-name="Trazado 8" class="cls-3" d="M0,0H9.179" transform="translate(5.154 0.459)"/>
        <line id="Línea_12-2" data-name="Línea 12" class="cls-3" x2="5" y2="0.516" transform="translate(7.345 0.459)"/>
      </g>
      <line id="Línea_13" data-name="Línea 13" class="cls-2" y2="35.468" transform="translate(1810.83 1777.032)"/>
    </g>
    <g id="Grupo_12" data-name="Grupo 12" transform="translate(2 -30)">
      <g id="Sustracción_3" data-name="Sustracción 3" class="cls-4" transform="translate(1880.002 1751.727) rotate(90)">
        <path class="cls-6" d="M61,39H0V30.5A30.508,30.508,0,0,1,58.6,18.628,30.309,30.309,0,0,1,61,30.5V39Z"/>
        <path class="cls-7" d="M 50.94697570800781 29.00143623352051 C 50.786865234375 26.76041030883789 50.26624298095703 24.58746337890625 49.39333724975586 22.52365493774414 C 48.36137390136719 20.0837459564209 46.88188171386719 17.89032745361328 44.99597549438477 16.0043830871582 C 43.1101188659668 14.11847400665283 40.9167366027832 12.63894653320312 38.47682952880859 11.60692882537842 C 35.95586395263672 10.54065608978271 33.27210235595703 10.00000095367432 30.50010108947754 10.00000095367432 C 27.72831916809082 10.00000095367432 25.04470062255859 10.54063701629639 22.52382850646973 11.60689163208008 C 20.08388328552246 12.63894653320312 17.89044570922852 14.11849212646484 16.00450134277344 16.00443840026855 C 14.11850070953369 17.89045524597168 12.63893699645996 20.08389282226562 11.60690116882324 22.52383804321289 C 10.7340612411499 24.58741760253906 10.21345329284668 26.75995826721191 10.053297996521 29.00076675415039 L 50.94697570800781 29.00143623352051 M 61.00020980834961 39.00160217285156 L 60.99921035766602 39.00160217285156 L 1.018038619804429e-05 39.00060272216797 L 1.018038619804429e-05 30.5001106262207 C 1.018038619804429e-05 26.38270950317383 0.8064283728599548 22.38843727111816 2.39690113067627 18.62823677062988 C 3.933101177215576 14.99632835388184 6.132300853729248 11.73452854156494 8.93341064453125 8.933401107788086 C 11.73451900482178 6.132291793823242 14.996337890625 3.933091878890991 18.62822914123535 2.396892070770264 C 22.388427734375 0.8064374327659607 26.38271903991699 1.086425754692755e-06 30.50010108947754 1.086425754692755e-06 C 34.61770248413086 1.086425754692755e-06 38.61210250854492 0.8064374327659607 42.37235641479492 2.396892070770264 C 46.0042839050293 3.933091878890991 49.26608276367188 6.13227367401123 52.067138671875 8.933401107788086 C 54.8681755065918 11.73451042175293 57.06730270385742 14.99631023406982 58.60342788696289 18.62823677062988 C 60.19380950927734 22.38840103149414 61.00020980834961 26.3826732635498 61.00020980834961 30.5001106262207 L 61.00020980834961 39.00060272216797 L 61.00020980834961 39.00160217285156 Z"/>
      </g>
    </g>
    <path id="Trazado_9" data-name="Trazado 9" class="cls-5" d="M1,70s44.358,13.4,44.108-4.1c-.053-3.733-3.247-6.219-8.36-9.424-2.551-1.6-5.921-3.549-9.558-6.036-6.613-4.521-13.732-8.752-19.056-15.243C-1.01,24.043,41.62,23.057,41.62,23.057" transform="translate(1901 1702.5)"/>
    <g id="Grupo_1" data-name="Grupo 1" transform="translate(863.295 1536)">
      <g id="Sustracción_4" data-name="Sustracción 4" class="cls-1" transform="translate(772 184.617)">
        <path class="cls-6" d="M0,61.629V0C10.679.407,18.135,1.622,23.465,3.822a17.609,17.609,0,0,1,7.167,4.984,12.293,12.293,0,0,1,2.637,7.91,12.314,12.314,0,0,1-2.29,7.4,16.574,16.574,0,0,1-6.27,4.957c5.71,1.092,9.914,2.731,12.851,5.009a12.2,12.2,0,0,1,4.948,10.159,13.017,13.017,0,0,1-.923,4.956,12.137,12.137,0,0,1-2.622,3.923c-2.165,2.2-5.257,3.9-9.452,5.222C20.95,61.035,9.243,61.513,0,61.629Z"/>
        <path class="cls-7" d="M 10.00084781646729 51.29500198364258 C 15.84708690643311 50.94562530517578 21.93523025512695 50.24391174316406 26.51367378234863 48.80535507202148 C 29.70300102233887 47.80327987670898 31.17167282104492 46.78231811523438 32.33119964599609 45.41057205200195 C 32.44572830200195 45.13089752197266 32.5088005065918 44.71660995483398 32.5088005065918 44.2440071105957 C 32.5088005065918 43.67844390869141 32.4260368347168 43.20242691040039 32.27572631835938 42.90357208251953 C 32.1361083984375 42.62595367431641 31.8361644744873 42.30002593994141 31.43107223510742 41.98579025268555 C 30.30390930175781 41.11135482788086 27.89707374572754 39.86577224731445 22.83196449279785 38.8975715637207 L 10.00060272216797 36.44483947753906 L 10.00084781646729 51.29500198364258 M 10.00041580200195 25.14068412780762 L 20.31369209289551 20.0933723449707 C 22.03485488891602 19.25102615356445 22.68730926513672 18.51762580871582 22.88787269592285 18.24148178100586 C 23.00203704833984 18.08428001403809 23.26939964294434 17.71617126464844 23.26939964294434 16.7156982421875 C 23.26939964294434 15.60795402526855 22.96481895446777 15.22857189178467 22.83480072021484 15.06662654876709 C 22.5870189666748 14.75800800323486 21.78061866760254 13.94522666931152 19.64958190917969 13.06553554534912 C 17.2569522857666 12.07784366607666 14.06459140777588 11.32550239562988 10.00017833709717 10.79742050170898 L 10.00041580200195 25.14068412780762 M 0.001018435112200677 61.62871551513672 L 2.53295894481198e-07 61.62871551513672 L 2.53295894481198e-07 0.000208116282010451 C 10.67867279052734 0.4068444669246674 18.13459968566895 1.621608138084412 23.46529197692871 3.822135448455811 C 26.60730934143066 5.119153499603271 29.01872825622559 6.795989990234375 30.63252830505371 8.806008338928223 C 32.38223648071289 10.98533535003662 33.26940155029297 13.64653491973877 33.26940155029297 16.7156982421875 C 33.26940155029297 19.53497123718262 32.49879837036133 22.02546310424805 30.97901916503906 24.11799049377441 C 29.56649208068848 26.06280899047852 27.45712661743164 27.73071670532227 24.70949172973633 29.07540893554688 C 30.41976356506348 30.16693496704102 34.62348937988281 31.80606269836426 37.56060028076172 34.08459091186523 C 39.1635627746582 35.32809829711914 40.39122009277344 36.78351593017578 41.20945358276367 38.41040802001953 C 42.07163619995117 40.1246452331543 42.5088005065918 42.08735275268555 42.5088005065918 44.2440071105957 C 42.5088005065918 46.03630065917969 42.1981086730957 47.70378875732422 41.58534622192383 49.20015335083008 C 40.99819946289062 50.63393402099609 40.11594390869141 51.95380783081055 38.96309280395508 53.12311553955078 C 36.79788970947266 55.31920623779297 33.70614624023438 57.02748107910156 29.51118278503418 58.34553527832031 C 20.9499454498291 61.03549957275391 9.243327140808105 61.51311874389648 0.001018435112200677 61.62871551513672 Z"/>
      </g>
    </g>
  </g>
</svg>
